<svg width="48" height="48" viewBox="0 0 48 48" fill="none" xmlns="http://www.w3.org/2000/svg">
<path d="M29.5 40C29.5 41.3599 28.4006 42.9673 25.7722 44.3239C23.2205 45.6409 19.5911 46.5 15.5 46.5C11.4089 46.5 7.77948 45.6409 5.22781 44.3239C2.59941 42.9673 1.5 41.3599 1.5 40C1.5 38.6401 2.59941 37.0327 5.22781 35.6761C7.77948 34.3591 11.4089 33.5 15.5 33.5C19.5911 33.5 23.2205 34.3591 25.7722 35.6761C28.4006 37.0327 29.5 38.6401 29.5 40Z" stroke="#152C5B" stroke-width="3"/>
<path d="M27.5 12C27.5 15.0495 26.0032 22.1006 23.5042 28.4348C22.2613 31.5851 20.8126 34.4466 19.2558 36.4924C17.6479 38.6052 16.196 39.5 15 39.5C13.804 39.5 12.3521 38.6052 10.7442 36.4924C9.1874 34.4466 7.73874 31.5851 6.49584 28.4348C3.99681 22.1006 2.5 15.0495 2.5 12C2.5 6.40961 7.87118 1.5 15 1.5C22.1288 1.5 27.5 6.40961 27.5 12Z" fill="white" stroke="#152C5B" stroke-width="3"/>
<circle cx="15" cy="14" r="4.5" stroke="#FF498B" stroke-width="3"/>
</svg>
