<svg width="48" height="48" viewBox="0 0 48 48" fill="none" xmlns="http://www.w3.org/2000/svg">
<mask id="path-1-inside-1" fill="white">
<path fill-rule="evenodd" clip-rule="evenodd" d="M19.4194 5C18.5693 5 17.8121 5.53741 17.5315 6.33989L15.7273 11.5H8C3.58172 11.5 0 15.0817 0 19.5V36C0 40.4183 3.58172 44 8 44H40C44.4183 44 48 40.4183 48 36V19.5C48 15.0817 44.4183 11.5 40 11.5H33.8182L32.4087 6.46124C32.1671 5.59732 31.3797 5 30.4827 5H19.4194Z"/>
</mask>
<path d="M17.5315 6.33989L20.3634 7.33006L17.5315 6.33989ZM15.7273 11.5V14.5H17.8564L18.5592 12.4902L15.7273 11.5ZM33.8182 11.5L30.9291 12.3081L31.5422 14.5H33.8182V11.5ZM32.4087 6.46124L29.5196 7.26938L29.5196 7.26938L32.4087 6.46124ZM20.3634 7.33006C20.2231 7.73129 19.8445 8 19.4194 8V2C17.2941 2 15.4011 3.34353 14.6996 5.34972L20.3634 7.33006ZM18.5592 12.4902L20.3634 7.33006L14.6996 5.34972L12.8954 10.5098L18.5592 12.4902ZM8 14.5H15.7273V8.5H8V14.5ZM3 19.5C3 16.7386 5.23858 14.5 8 14.5V8.5C1.92487 8.5 -3 13.4249 -3 19.5H3ZM3 36V19.5H-3V36H3ZM8 41C5.23858 41 3 38.7614 3 36H-3C-3 42.0751 1.92487 47 8 47V41ZM40 41H8V47H40V41ZM45 36C45 38.7614 42.7614 41 40 41V47C46.0751 47 51 42.0751 51 36H45ZM45 19.5V36H51V19.5H45ZM40 14.5C42.7614 14.5 45 16.7386 45 19.5H51C51 13.4249 46.0751 8.5 40 8.5V14.5ZM33.8182 14.5H40V8.5H33.8182V14.5ZM29.5196 7.26938L30.9291 12.3081L36.7073 10.6919L35.2978 5.6531L29.5196 7.26938ZM30.4827 8C30.0341 8 29.6405 7.70134 29.5196 7.26938L35.2978 5.6531C34.6937 3.49331 32.7254 2 30.4827 2V8ZM19.4194 8H30.4827V2H19.4194V8Z" fill="#152C5B" mask="url(#path-1-inside-1)"/>
<path d="M33 18.0843L39.9995 18" stroke="#152C5B" stroke-width="3" stroke-linecap="round"/>
<circle cx="24" cy="27" r="6.5" stroke="#FF498B" stroke-width="3"/>
</svg>
