<svg width="48" height="48" viewBox="0 0 48 48" fill="none" xmlns="http://www.w3.org/2000/svg">
<g clip-path="url(#clip0)">
<rect width="48" height="48" fill="white"/>
<path d="M39 20V6.88474C39 6.32125 38.7623 5.7839 38.3453 5.40486L34.514 1.92185C33.9029 1.36624 33.013 1.24349 32.2743 1.61287L27.5 4" stroke="#FF498B" stroke-width="3" stroke-linecap="round"/>
<path d="M24.5 8.5H30.5V7.5C30.5 5.84315 29.1569 4.5 27.5 4.5C25.8431 4.5 24.5 5.84315 24.5 7.5V8.5Z" stroke="#FF498B" stroke-width="3"/>
<path d="M1.5 24C1.5 22.6193 2.61929 21.5 4 21.5H44C45.3807 21.5 46.5 22.6193 46.5 24V26C46.5 27.3807 45.3807 28.5 44 28.5H4C2.61929 28.5 1.5 27.3807 1.5 26V24Z" stroke="#152C5B" stroke-width="3"/>
<path d="M5.5 28.5H42.5V39C42.5 40.933 40.933 42.5 39 42.5H9C7.067 42.5 5.5 40.933 5.5 39V28.5Z" stroke="#152C5B" stroke-width="3"/>
<path d="M10 44V46" stroke="#152C5B" stroke-width="3" stroke-linecap="round"/>
<path d="M38 44V46" stroke="#152C5B" stroke-width="3" stroke-linecap="round"/>
</g>
<defs>
<clipPath id="clip0">
<rect width="48" height="48" fill="white"/>
</clipPath>
</defs>
</svg>
