<svg width="48" height="48" viewBox="0 0 48 48" fill="none" xmlns="http://www.w3.org/2000/svg">
<rect width="48" height="48" fill="white"/>
<mask id="path-1-inside-1" fill="white">
<rect x="13" y="12" width="10" height="10" rx="2"/>
</mask>
<rect x="13" y="12" width="10" height="10" rx="2" stroke="#FF498B" stroke-width="6" mask="url(#path-1-inside-1)"/>
<mask id="path-2-inside-2" fill="white">
<rect x="25" y="12" width="10" height="10" rx="2"/>
</mask>
<rect x="25" y="12" width="10" height="10" rx="2" stroke="#FF498B" stroke-width="6" mask="url(#path-2-inside-2)"/>
<path d="M9.5 14C9.5 9.30558 13.3056 5.5 18 5.5H30C34.6944 5.5 38.5 9.30558 38.5 14V21.5H9.5V14Z" stroke="#152C5B" stroke-width="3"/>
<mask id="path-4-inside-3" fill="white">
<path d="M0 25C0 22.7909 1.79086 21 4 21H44C46.2091 21 48 22.7909 48 25V36C48 37.1046 47.1046 38 46 38H2C0.895431 38 0 37.1046 0 36V25Z"/>
</mask>
<path d="M0 25C0 22.7909 1.79086 21 4 21H44C46.2091 21 48 22.7909 48 25V36C48 37.1046 47.1046 38 46 38H2C0.895431 38 0 37.1046 0 36V25Z" stroke="#152C5B" stroke-width="6" mask="url(#path-4-inside-3)"/>
<path d="M5 38V45" stroke="#152C5B" stroke-width="3" stroke-linecap="round"/>
<path d="M43 38V45" stroke="#152C5B" stroke-width="3" stroke-linecap="round"/>
<path d="M7 41L41 41.0207" stroke="#152C5B" stroke-width="3" stroke-linecap="round"/>
</svg>
