<svg width="48" height="48" viewBox="0 0 48 48" fill="none" xmlns="http://www.w3.org/2000/svg">
<rect width="48" height="48" fill="white"/>
<path d="M5.20633 22.1406C5.56702 21.1553 6.50467 20.5 7.55399 20.5H39.6863C40.8387 20.5 41.8419 21.2878 42.1151 22.4073L43.3352 27.4073C43.7194 28.9817 42.5271 30.5 40.9065 30.5H5.72375C3.98659 30.5 2.77895 28.772 3.37609 27.1406L5.20633 22.1406Z" stroke="#152C5B" stroke-width="3"/>
<path d="M16.9503 15.002V20.002" stroke="#152C5B" stroke-width="3" stroke-linecap="round"/>
<path d="M29.9007 15.0041V20.0041" stroke="#152C5B" stroke-width="3" stroke-linecap="round"/>
<mask id="path-4-inside-1" fill="white">
<path d="M19.9504 5.00496C20.5026 5.00222 20.9526 5.44771 20.9553 5.99999L20.9803 11.0269C20.9912 13.2223 19.2203 15.0109 17.0248 15.0218C14.8294 15.0327 13.0408 13.2618 13.0299 11.0663L13.005 6.03946C13.0022 5.48718 13.4477 5.03725 14 5.03451L19.9504 5.00496Z"/>
</mask>
<path d="M19.9504 5.00496C20.5026 5.00222 20.9526 5.44771 20.9553 5.99999L20.9803 11.0269C20.9912 13.2223 19.2203 15.0109 17.0248 15.0218C14.8294 15.0327 13.0408 13.2618 13.0299 11.0663L13.005 6.03946C13.0022 5.48718 13.4477 5.03725 14 5.03451L19.9504 5.00496Z" stroke="#FF498B" stroke-width="6" mask="url(#path-4-inside-1)"/>
<mask id="path-5-inside-2" fill="white">
<path d="M32.9007 5.00701C33.453 5.00427 33.9029 5.44975 33.9057 6.00203L33.9306 11.0289C33.9415 13.2243 32.1706 15.0129 29.9752 15.0238C27.7797 15.0347 25.9912 13.2638 25.9803 11.0684L25.9553 6.0415C25.9526 5.48923 26.3981 5.03929 26.9503 5.03655L32.9007 5.00701Z"/>
</mask>
<path d="M32.9007 5.00701C33.453 5.00427 33.9029 5.44975 33.9057 6.00203L33.9306 11.0289C33.9415 13.2243 32.1706 15.0129 29.9752 15.0238C27.7797 15.0347 25.9912 13.2638 25.9803 11.0684L25.9553 6.0415C25.9526 5.48923 26.3981 5.03929 26.9503 5.03655L32.9007 5.00701Z" stroke="#FF498B" stroke-width="6" mask="url(#path-5-inside-2)"/>
<mask id="path-6-inside-3" fill="white">
<path d="M11.5375 30.005C12.0897 30.0022 12.5397 30.4477 12.5424 31L12.6045 43.5008C12.6148 45.5822 10.9359 47.2779 8.85446 47.2882C6.77305 47.2985 5.07736 45.6196 5.06703 43.5382L5.00497 31.0374C5.00222 30.4851 5.44771 30.0352 5.99999 30.0325L11.5375 30.005Z"/>
</mask>
<path d="M11.5375 30.005C12.0897 30.0022 12.5397 30.4477 12.5424 31L12.6045 43.5008C12.6148 45.5822 10.9359 47.2779 8.85446 47.2882C6.77305 47.2985 5.07736 45.6196 5.06703 43.5382L5.00497 31.0374C5.00222 30.4851 5.44771 30.0352 5.99999 30.0325L11.5375 30.005Z" stroke="#152C5B" stroke-width="6" mask="url(#path-6-inside-3)"/>
<mask id="path-7-inside-4" fill="white">
<path d="M40.5375 30.005C41.0897 30.0022 41.5397 30.4477 41.5424 31L41.6045 43.5011C41.6148 45.5825 39.9359 47.2782 37.8545 47.2885C35.7731 47.2988 34.0774 45.6199 34.067 43.5385L34.005 31.0374C34.0022 30.4851 34.4477 30.0352 35 30.0325L40.5375 30.005Z"/>
</mask>
<path d="M40.5375 30.005C41.0897 30.0022 41.5397 30.4477 41.5424 31L41.6045 43.5011C41.6148 45.5825 39.9359 47.2782 37.8545 47.2885C35.7731 47.2988 34.0774 45.6199 34.067 43.5385L34.005 31.0374C34.0022 30.4851 34.4477 30.0352 35 30.0325L40.5375 30.005Z" stroke="#152C5B" stroke-width="6" mask="url(#path-7-inside-4)"/>
</svg>
